<svg width="17" height="16" viewBox="0 0 17 16" fill="none" xmlns="http://www.w3.org/2000/svg">
<g id="Instagram / Negative" clip-path="url(#clip0_714_471)">
<g id="Group">
<path id="Vector" d="M8.6875 1.44062C10.825 1.44062 11.0781 1.45 11.9188 1.4875C12.7 1.52187 13.1219 1.65313 13.4031 1.7625C13.775 1.90625 14.0438 2.08125 14.3219 2.35938C14.6031 2.64062 14.775 2.90625 14.9188 3.27813C15.0281 3.55938 15.1594 3.98438 15.1938 4.7625C15.2313 5.60625 15.2406 5.85938 15.2406 7.99375C15.2406 10.1313 15.2313 10.3844 15.1938 11.225C15.1594 12.0063 15.0281 12.4281 14.9188 12.7094C14.775 13.0813 14.6 13.35 14.3219 13.6281C14.0406 13.9094 13.775 14.0813 13.4031 14.225C13.1219 14.3344 12.6969 14.4656 11.9188 14.5C11.075 14.5375 10.8219 14.5469 8.6875 14.5469C6.55 14.5469 6.29688 14.5375 5.45625 14.5C4.675 14.4656 4.25313 14.3344 3.97188 14.225C3.6 14.0813 3.33125 13.9063 3.05313 13.6281C2.77188 13.3469 2.6 13.0813 2.45625 12.7094C2.34688 12.4281 2.21563 12.0031 2.18125 11.225C2.14375 10.3813 2.13438 10.1281 2.13438 7.99375C2.13438 5.85625 2.14375 5.60313 2.18125 4.7625C2.21563 3.98125 2.34688 3.55938 2.45625 3.27813C2.6 2.90625 2.775 2.6375 3.05313 2.35938C3.33438 2.07812 3.6 1.90625 3.97188 1.7625C4.25313 1.65313 4.67813 1.52187 5.45625 1.4875C6.29688 1.45 6.55 1.44062 8.6875 1.44062ZM8.6875 0C6.51563 0 6.24375 0.009375 5.39063 0.046875C4.54063 0.084375 3.95625 0.221875 3.45 0.41875C2.92188 0.625 2.475 0.896875 2.03125 1.34375C1.58438 1.7875 1.3125 2.23438 1.10625 2.75938C0.909375 3.26875 0.771875 3.85 0.734375 4.7C0.696875 5.55625 0.6875 5.82812 0.6875 8C0.6875 10.1719 0.696875 10.4438 0.734375 11.2969C0.771875 12.1469 0.909375 12.7313 1.10625 13.2375C1.3125 13.7656 1.58438 14.2125 2.03125 14.6562C2.475 15.1 2.92188 15.375 3.44688 15.5781C3.95625 15.775 4.5375 15.9125 5.3875 15.95C6.24063 15.9875 6.5125 15.9969 8.68438 15.9969C10.8563 15.9969 11.1281 15.9875 11.9813 15.95C12.8313 15.9125 13.4156 15.775 13.9219 15.5781C14.4469 15.375 14.8938 15.1 15.3375 14.6562C15.7813 14.2125 16.0563 13.7656 16.2594 13.2406C16.4563 12.7313 16.5938 12.15 16.6313 11.3C16.6688 10.4469 16.6781 10.175 16.6781 8.00313C16.6781 5.83125 16.6688 5.55938 16.6313 4.70625C16.5938 3.85625 16.4563 3.27188 16.2594 2.76562C16.0625 2.23438 15.7906 1.7875 15.3438 1.34375C14.9 0.9 14.4531 0.625 13.9281 0.421875C13.4188 0.225 12.8375 0.0875 11.9875 0.05C11.1313 0.009375 10.8594 0 8.6875 0Z" fill="#282938"/>
<path id="Vector_2" d="M8.6875 3.89062C6.41875 3.89062 4.57812 5.73125 4.57812 8C4.57812 10.2688 6.41875 12.1094 8.6875 12.1094C10.9563 12.1094 12.7969 10.2688 12.7969 8C12.7969 5.73125 10.9563 3.89062 8.6875 3.89062ZM8.6875 10.6656C7.21563 10.6656 6.02187 9.47188 6.02187 8C6.02187 6.52813 7.21563 5.33437 8.6875 5.33437C10.1594 5.33437 11.3531 6.52813 11.3531 8C11.3531 9.47188 10.1594 10.6656 8.6875 10.6656Z" fill="#282938"/>
<path id="Vector_3" d="M13.9187 3.72793C13.9187 4.25918 13.4875 4.68731 12.9594 4.68731C12.4281 4.68731 12 4.25606 12 3.72793C12 3.19668 12.4313 2.76855 12.9594 2.76855C13.4875 2.76855 13.9187 3.19981 13.9187 3.72793Z" fill="#282938"/>
</g>
</g>
<defs>
<clipPath id="clip0_714_471">
<rect width="16" height="16" fill="white" transform="translate(0.6875)"/>
</clipPath>
</defs>
</svg>
