<svg width="17" height="16" viewBox="0 0 17 16" fill="none" xmlns="http://www.w3.org/2000/svg">
<g id="LinkedIn / Negative" clip-path="url(#clip0_714_476)">
<g id="Group">
<path id="Vector" d="M15.3469 0H1.7125C1.05937 0 0.53125 0.501783 0.53125 1.12217V14.4453C0.53125 15.0656 1.05937 15.5705 1.7125 15.5705H15.3469C16 15.5705 16.5312 15.0656 16.5312 14.4483V1.12217C16.5312 0.501783 16 0 15.3469 0ZM5.27812 13.2683H2.90313V5.83588H5.27812V13.2683ZM4.09063 4.8232C3.32813 4.8232 2.7125 4.2241 2.7125 3.48511C2.7125 2.74612 3.32813 2.14702 4.09063 2.14702C4.85 2.14702 5.46562 2.74612 5.46562 3.48511C5.46562 4.22106 4.85 4.8232 4.09063 4.8232ZM14.1656 13.2683H11.7937V9.65551C11.7937 8.79488 11.7781 7.68488 10.5594 7.68488C9.325 7.68488 9.1375 8.62458 9.1375 9.59469V13.2683H6.76875V5.83588H9.04375V6.85161H9.075C9.39062 6.26772 10.1656 5.65038 11.3188 5.65038C13.7219 5.65038 14.1656 7.18918 14.1656 9.19022V13.2683Z" fill="#282938"/>
</g>
</g>
<defs>
<clipPath id="clip0_714_476">
<rect width="16" height="15.5705" fill="white" transform="translate(0.53125)"/>
</clipPath>
</defs>
</svg>
