<svg width="17" height="16" viewBox="0 0 17 16" fill="none" xmlns="http://www.w3.org/2000/svg">
<g id="Twitter / Negative" clip-path="url(#clip0_714_469)">
<path id="Vector" d="M5.87719 14.1105C11.9134 14.1105 15.2159 9.24255 15.2159 5.02241C15.2159 4.88556 15.2128 4.74567 15.2066 4.60882C15.849 4.15669 16.4034 3.59667 16.8438 2.95507C16.2454 3.21412 15.6102 3.38331 14.9597 3.45685C15.6446 3.05732 16.1574 2.42968 16.4031 1.69027C15.7588 2.06188 15.0541 2.32402 14.3194 2.46545C13.8243 1.95354 13.1697 1.61459 12.4569 1.50101C11.744 1.38744 11.0125 1.50555 10.3756 1.83711C9.73861 2.16866 9.23162 2.69517 8.93298 3.33525C8.63435 3.97533 8.5607 4.69333 8.72344 5.37822C7.41875 5.31451 6.14237 4.98468 4.97707 4.41013C3.81177 3.83557 2.78355 3.02912 1.95906 2.04304C1.54002 2.74613 1.41179 3.57811 1.60044 4.3699C1.78909 5.16169 2.28046 5.85387 2.97469 6.30576C2.4535 6.28966 1.94373 6.1531 1.4875 5.90737V5.94691C1.48703 6.68475 1.74915 7.39997 2.22929 7.97101C2.70943 8.54205 3.37797 8.93365 4.12125 9.07925C3.63845 9.2078 3.13174 9.22653 2.64031 9.13399C2.85005 9.76853 3.25813 10.3235 3.8076 10.7215C4.35706 11.1195 5.0205 11.3406 5.70531 11.354C4.5427 12.2427 3.10653 12.7248 1.62813 12.7225C1.36594 12.7221 1.10402 12.7065 0.84375 12.6757C2.34565 13.6133 4.09277 14.1114 5.87719 14.1105Z" fill="#282938"/>
</g>
<defs>
<clipPath id="clip0_714_469">
<rect width="16" height="15.5705" fill="white" transform="translate(0.84375)"/>
</clipPath>
</defs>
</svg>
