<svg width="35" height="35" viewBox="0 0 35 35" fill="none" xmlns="http://www.w3.org/2000/svg">
<path d="M16 6.24609C19.003 6.24609 21.4374 4.91694 21.4374 3.27734C21.4374 1.63775 19.003 0.308594 16 0.308594C12.9969 0.308594 10.5625 1.63775 10.5625 3.27734C10.5625 4.91694 12.9969 6.24609 16 6.24609Z" fill="#2405F2"/>
<path d="M27 6.24578C28.8984 6.24578 30.4374 5.40551 30.4374 4.36898C30.4374 3.33246 28.8984 2.49219 27 2.49219C25.1015 2.49219 23.5625 3.33246 23.5625 4.36898C23.5625 5.40551 25.1015 6.24578 27 6.24578Z" fill="#2405F2"/>
<path d="M4.99997 6.24578C6.89843 6.24578 8.43744 5.40551 8.43744 4.36898C8.43744 3.33246 6.89843 2.49219 4.99997 2.49219C3.10151 2.49219 1.5625 3.33246 1.5625 4.36898C1.5625 5.40551 3.10151 6.24578 4.99997 6.24578Z" fill="#2405F2"/>
<path d="M8.3868 7.93102C7.03369 7.32573 5.80826 7.40585 4.24371 7.40585C1.90373 7.40585 0 8.43912 0 9.70885V13.4355C0 13.9869 0.824368 14.4353 1.83811 14.4353C6.21469 14.4353 5.68745 14.4785 5.68745 14.3323C5.68745 11.6916 5.11458 9.75502 8.3868 7.93102Z" fill="#2405F2"/>
<path d="M17.4882 7.42015C14.7555 7.2957 12.3802 7.42158 10.3314 8.3449C6.90288 9.84429 7.56268 11.8631 7.56268 14.3329C7.56268 14.9863 8.53642 15.5279 9.75141 15.5279C22.9439 15.5279 23.469 15.7603 24.2513 14.8144C24.5078 14.4945 24.4375 14.5962 24.4375 11.5361C24.4375 9.10565 20.583 7.42015 17.4882 7.42015Z" fill="#2405F2"/>
<path d="M27.7564 7.40675C26.1833 7.40675 24.9646 7.32744 23.6133 7.93191C26.8611 9.74237 26.3126 11.5468 26.3126 14.3331C26.3126 14.4804 25.8749 14.4362 30.0963 14.4362C31.1463 14.4362 32.0001 13.9718 32.0001 13.4009V9.70974C32.0001 8.44001 30.0963 7.40675 27.7564 7.40675Z" fill="#2405F2"/>
</svg>
