<svg width="35" height="35" viewBox="0 0 34 19" fill="none" xmlns="http://www.w3.org/2000/svg">
<path d="M25.866 3.19892C25.866 2.76341 25.5547 2.35342 24.9905 2.04538L22.1734 0.507304C21.6171 0.20351 20.8273 0.0292969 20.0413 0.0292969H19.8701V3.29239H25.8661L25.866 3.19892Z" fill="#2405F2"/>
<path d="M18.1911 11.2521C18.3818 10.936 18.7145 10.6418 19.1483 10.4034L25.8927 6.7359V4.38009H18.8934C18.3429 4.38009 17.9297 4.13684 17.9297 3.83624V0.0292969H2.98828C1.34048 0.0292969 0 0.761173 0 1.66084V16.9611C0 17.8608 1.34048 18.5927 2.98828 18.5927H22.8778C24.5256 18.5927 25.8927 17.8608 25.8927 16.9611V12.9022L24.798 13.4853C24.3545 13.7254 23.8351 13.9001 23.2494 14.0069L20.0822 14.5842L19.5997 14.5985C18.802 14.5985 18.0472 14.3866 17.5783 14.0319C17.1134 13.6787 16.9869 13.2209 17.2398 12.8071L18.1911 11.2521ZM4.98047 9.81858H14.9091C15.4596 9.81858 15.9052 10.0618 15.9052 10.3624C15.9052 10.663 15.4596 10.9063 14.9091 10.9063H4.98047C4.42989 10.9063 3.98438 10.663 3.98438 10.3624C3.98438 10.0618 4.42989 9.81858 4.98047 9.81858ZM3.98438 8.18703C3.98438 7.88643 4.42989 7.64319 4.98047 7.64319H14.9091C15.4596 7.64319 15.9052 7.88643 15.9052 8.18703C15.9052 8.48764 15.4596 8.73088 14.9091 8.73088H4.98047C4.42989 8.73088 3.98438 8.48764 3.98438 8.18703ZM3.98438 12.5378C3.98438 12.2372 4.42989 11.994 4.98047 11.994H14.9091C15.4596 11.994 15.9052 12.2372 15.9052 12.5378C15.9052 12.8384 15.4596 13.0817 14.9091 13.0817H4.98047C4.42989 13.0817 3.98438 12.8384 3.98438 12.5378ZM18.8934 15.2571C19.444 15.2571 19.8895 15.5003 19.8895 15.8009C19.8895 16.1015 19.4441 16.3448 18.8934 16.3448H12.9169C12.3663 16.3448 11.9208 16.1015 11.9208 15.8009C11.9208 15.5003 12.3663 15.2571 12.9169 15.2571H18.8934ZM4.98047 6.55549C4.42989 6.55549 3.98438 6.31224 3.98438 6.01164C3.98438 5.71103 4.42989 5.46779 4.98047 5.46779H18.8934C19.444 5.46779 19.8895 5.71103 19.8895 6.01164C19.8895 6.31224 19.444 6.55549 18.8934 6.55549H4.98047Z" fill="#2405F2"/>
<path d="M19.9956 11.7334L19.129 13.1529C18.9991 13.3655 19.3697 13.5678 19.7592 13.4968L22.3575 13.023L19.9956 11.7334Z" fill="#2405F2"/>
<path d="M27.7321 7.25586L21.1719 10.8376L24.0011 12.3823C25.4838 11.5726 28.3689 9.99726 30.561 8.80039L27.7321 7.25586Z" fill="#2405F2"/>
<path d="M33.4149 5.69575C33.0648 5.50348 32.5492 5.39355 32.0025 5.39355C31.4557 5.39355 30.9402 5.50348 30.5881 5.6963L29.1406 6.48658L31.9694 8.03104C32.7618 7.59836 33.3095 7.29931 33.417 7.24068C34.1951 6.81521 34.195 6.1222 33.4149 5.69575Z" fill="#2405F2"/>
</svg>
