<svg width="21" height="39" viewBox="0 0 21 39" fill="none" xmlns="http://www.w3.org/2000/svg">
<mask id="mask0_2_427" style="mask-type:alpha" maskUnits="userSpaceOnUse" x="5" y="25" width="8" height="6">
<path d="M6.46968 27.2198C7.73271 26.0192 11.0449 25.8721 12.6237 25.9045C11.6231 27.3859 9.51268 30.0142 8.02377 30.2877C6.04583 30.651 4.8909 28.7207 6.46968 27.2198Z" fill="#849A72"/>
</mask>
<g mask="url(#mask0_2_427)">
<path d="M6.46968 27.2198C7.73271 26.0192 11.0449 25.8721 12.6237 25.9045C11.6231 27.3859 9.51268 30.0142 8.02377 30.2877C6.04583 30.651 4.8909 28.7207 6.46968 27.2198Z" fill="#849A72"/>
<path d="M12.6219 25.9065C11.2345 26.8332 7.97454 28.8698 6.03326 29.6026" stroke="#145855" stroke-width="0.8" stroke-linecap="round" stroke-linejoin="round"/>
<path d="M6.2207 27.5269L8.47812 28.3967V30.0949" stroke="#145855" stroke-width="0.8" stroke-linecap="round" stroke-linejoin="round"/>
<path d="M7.65251 26.5869L10.0255 27.5204L10.1514 28.8337" stroke="#145855" stroke-width="0.8" stroke-linecap="round" stroke-linejoin="round"/>
<path d="M9.75343 26.0801L11.3616 26.7074V27.5269" stroke="#145855" stroke-width="0.8" stroke-linecap="round" stroke-linejoin="round"/>
</g>
<mask id="mask1_2_427" style="mask-type:alpha" maskUnits="userSpaceOnUse" x="0" y="19" width="11" height="5">
<path d="M2.01706 19.384C4.44859 18.7141 8.50502 20.2542 10.2293 21.108C8.11216 22.2495 5.52803 24.253 2.42021 23.819C-0.413433 23.4233 -1.02236 20.2214 2.01706 19.384Z" fill="#849A72"/>
</mask>
<g mask="url(#mask1_2_427)">
<path d="M2.01706 19.384C4.44859 18.7141 8.50502 20.2542 10.2293 21.108C8.11216 22.2495 5.52803 24.253 2.42021 23.819C-0.413433 23.4233 -1.02236 20.2214 2.01706 19.384Z" fill="#849A72"/>
<path d="M10.1441 21.1257C7.27047 21.2236 2.19703 21.3082 0.0493774 21.6127" stroke="#145855" stroke-width="0.8" stroke-linecap="round" stroke-linejoin="round"/>
<path d="M4.53198 19.323L6.02749 21.2526L5.529 23.5038" stroke="#145855" stroke-width="0.8" stroke-linecap="round" stroke-linejoin="round"/>
<path d="M1.89996 19.459L3.34782 21.3346L2.36065 23.7366" stroke="#145855" stroke-width="0.8" stroke-linecap="round" stroke-linejoin="round"/>
<path d="M7.17816 19.9543L8.22073 21.176L7.9112 22.4302" stroke="#145855" stroke-width="0.8" stroke-linecap="round" stroke-linejoin="round"/>
</g>
<mask id="mask2_2_427" style="mask-type:alpha" maskUnits="userSpaceOnUse" x="0" y="10" width="10" height="8">
<path d="M3.91622 11.3276C6.21572 12.7511 8.37827 15.9721 9.17211 17.4047C7.00039 17.2952 2.32297 16.5999 0.987095 14.6947C-0.682751 12.3131 1.04184 9.54825 3.91622 11.3276Z" fill="#849A72"/>
</mask>
<g mask="url(#mask2_2_427)">
<path d="M3.91622 11.3276C6.21572 12.7511 8.37827 15.9721 9.17211 17.4047C7.00039 17.2952 2.32297 16.5999 0.987095 14.6947C-0.682751 12.3131 1.04184 9.54825 3.91622 11.3276Z" fill="#849A72"/>
<path d="M9.23942 17.4363C6.89104 16.0253 1.84354 12.8283 0.440613 11.3286" stroke="#145855" stroke-width="0.8" stroke-linecap="round" stroke-linejoin="round"/>
<path d="M5.41656 16.9826L7.1963 16.1612V14.3813" stroke="#145855" stroke-width="0.8" stroke-linecap="round" stroke-linejoin="round"/>
<path d="M2.92499 16.1621L5.42124 15.01V12.1023" stroke="#145855" stroke-width="0.8" stroke-linecap="round" stroke-linejoin="round"/>
<path d="M0.490906 14.3271L3.1666 13.4924V10.5466" stroke="#145855" stroke-width="0.8" stroke-linecap="round" stroke-linejoin="round"/>
</g>
<mask id="mask3_2_427" style="mask-type:alpha" maskUnits="userSpaceOnUse" x="5" y="0" width="7" height="13">
<path d="M6.02413 2.32649C5.01773 5.45495 7.31853 10.3208 8.59472 12.3627C9.6248 10.7037 11.6029 6.63086 11.2748 3.61178C10.8646 -0.162057 7.28213 -1.58408 6.02413 2.32649Z" fill="#849A72"/>
</mask>
<g mask="url(#mask3_2_427)">
<path d="M6.02413 2.32649C5.01773 5.45495 7.31853 10.3208 8.59472 12.3627C9.6248 10.7037 11.6029 6.63086 11.2748 3.61178C10.8646 -0.162057 7.28213 -1.58408 6.02413 2.32649Z" fill="#849A72"/>
<path d="M8.50859 -0.291504C8.01018 2.81888 8.3724 11.2178 8.6733 12.6772" stroke="#145855" stroke-width="0.8" stroke-linecap="round" stroke-linejoin="round"/>
<path d="M6.55707 8.87207L8.41635 9.751L10.5461 8.87207" stroke="#145855" stroke-width="0.8" stroke-linecap="round" stroke-linejoin="round"/>
<path d="M5.85394 5.99745L8.31339 7.06779L11.3423 5.54199" stroke="#145855" stroke-width="0.8" stroke-linecap="round" stroke-linejoin="round"/>
<path d="M5.51288 2.94415L8.24838 4.32731L11.1684 2.42163" stroke="#145855" stroke-width="0.8" stroke-linecap="round" stroke-linejoin="round"/>
</g>
<mask id="mask4_2_427" style="mask-type:alpha" maskUnits="userSpaceOnUse" x="8" y="7" width="10" height="8">
<path d="M13.172 8.38319C10.8526 9.69201 9.2925 13.3051 8.80237 14.948C10.4453 14.7133 14.2033 13.7303 16.092 11.6759C18.4528 9.10801 16.0713 6.74717 13.172 8.38319Z" fill="#849A72"/>
</mask>
<g mask="url(#mask4_2_427)">
<path d="M13.172 8.38319C10.8526 9.69201 9.2925 13.3051 8.80237 14.948C10.4453 14.7133 14.2033 13.7303 16.092 11.6759C18.4528 9.10801 16.0713 6.74717 13.172 8.38319Z" fill="#849A72"/>
<path d="M8.70435 14.9573C10.7008 13.4022 15.1329 9.92679 16.746 8.21729" stroke="#145855" stroke-width="0.8" stroke-linecap="round" stroke-linejoin="round"/>
<path d="M9.9978 11.6011L10.3707 13.6045L12.3158 14.1965" stroke="#145855" stroke-width="0.8" stroke-linecap="round" stroke-linejoin="round"/>
<path d="M11.4922 9.61865L12.201 12.1192L15.0757 12.7493" stroke="#145855" stroke-width="0.8" stroke-linecap="round" stroke-linejoin="round"/>
<path d="M13.5201 7.92529L14.3471 10.3668L16.9058 10.7587" stroke="#145855" stroke-width="0.8" stroke-linecap="round" stroke-linejoin="round"/>
</g>
<mask id="mask5_2_427" style="mask-type:alpha" maskUnits="userSpaceOnUse" x="9" y="14" width="11" height="6">
<path d="M15.5822 14.7862C12.985 15.7752 10.6522 18.4316 9.81042 19.6362C11.5485 19.9849 15.674 20.3082 18.2713 18.812C21.5179 16.9418 18.8288 13.5499 15.5822 14.7862Z" fill="#849A72"/>
</mask>
<g mask="url(#mask5_2_427)">
<path d="M15.5822 14.7862C12.985 15.7752 10.6522 18.4316 9.81042 19.6362C11.5485 19.9849 15.674 20.3082 18.2713 18.812C21.5179 16.9418 18.8288 13.5499 15.5822 14.7862Z" fill="#849A72"/>
<path d="M9.63281 19.6747C12.2314 18.7831 17.8786 16.6869 19.6792 15.4343" stroke="#145855" stroke-width="0.8" stroke-linecap="round" stroke-linejoin="round"/>
<path d="M12.0184 16.811L11.8336 18.8824L13.8946 20.0547" stroke="#145855" stroke-width="0.8" stroke-linecap="round" stroke-linejoin="round"/>
<path d="M14.5962 15.0044L14.4034 17.9195L17.0776 19.5336" stroke="#145855" stroke-width="0.8" stroke-linecap="round" stroke-linejoin="round"/>
</g>
<mask id="mask6_2_427" style="mask-type:alpha" maskUnits="userSpaceOnUse" x="11" y="21" width="6" height="4">
<path d="M15.0507 21.7365C13.735 22.0164 12.2863 23.5094 11.7264 24.2209C12.3796 24.4192 14.3324 24.5045 15.5755 23.9059C17.4651 22.9962 16.6952 21.3865 15.0507 21.7365Z" fill="#849A72"/>
</mask>
<g mask="url(#mask6_2_427)">
<path d="M15.0507 21.7365C13.735 22.0164 12.2863 23.5094 11.7264 24.2209C12.3796 24.4192 14.3324 24.5045 15.5755 23.9059C17.4651 22.9962 16.6952 21.3865 15.0507 21.7365Z" fill="#849A72"/>
<path d="M11.6062 24.2749C12.6525 23.9895 15.141 23.1656 16.7247 22.1526" stroke="#145855" stroke-width="0.8" stroke-linecap="round" stroke-linejoin="round"/>
<path d="M13.362 22.5L13.2766 23.7441L14.4231 24.3662" stroke="#145855" stroke-width="0.8" stroke-linecap="round" stroke-linejoin="round"/>
<path d="M14.7159 21.7314V23.1341L15.9478 23.8294" stroke="#145855" stroke-width="0.8" stroke-linecap="round" stroke-linejoin="round"/>
</g>
<path d="M18.4174 32.3102C13.4619 28.1164 8.83801 21.8764 8.59424 12.1548" stroke="#849A72" stroke-width="1.5" stroke-linecap="round" stroke-linejoin="round"/>
<mask id="mask7_2_427" style="mask-type:alpha" maskUnits="userSpaceOnUse" x="14" y="33" width="7" height="6">
<path d="M15.3205 35.5659C16.9434 34.1748 19.0774 33.6177 20.018 33.5439C19.7335 34.4082 19.0593 35.8707 17.4987 37.4613C15.548 39.4496 12.9572 37.5917 15.3205 35.5659Z" fill="#849A72"/>
</mask>
<g mask="url(#mask7_2_427)">
<path d="M15.3205 35.5659C16.9434 34.1748 19.0774 33.6177 20.018 33.5439C19.7335 34.4082 19.0593 35.8707 17.4987 37.4613C15.548 39.4496 12.9572 37.5917 15.3205 35.5659Z" fill="#849A72"/>
<path d="M19.9269 33.6519C18.5283 34.9227 15.4372 37.6262 14.2614 38.2737" stroke="#145855" stroke-width="0.8" stroke-linecap="round" stroke-linejoin="round"/>
<path d="M14.3417 36.3091L16.3752 36.7227V38.4804" stroke="#145855" stroke-width="0.8" stroke-linecap="round" stroke-linejoin="round"/>
<path d="M15.784 34.8589L17.5973 35.6186V37.5675" stroke="#145855" stroke-width="0.8" stroke-linecap="round" stroke-linejoin="round"/>
</g>
<mask id="mask8_2_427" style="mask-type:alpha" maskUnits="userSpaceOnUse" x="16" y="26" width="4" height="5">
<path d="M17.3973 27.2201C16.8423 28.5346 16.8009 30.1776 16.8496 30.8348C17.6771 30.4819 19.6833 29.0153 19.771 27.5548C19.8805 25.7292 18.0909 25.5771 17.3973 27.2201Z" fill="#849A72"/>
</mask>
<g mask="url(#mask8_2_427)">
<path d="M17.3973 27.2201C16.8423 28.5346 16.8009 30.1776 16.8496 30.8348C17.6771 30.4819 19.6833 29.0153 19.771 27.5548C19.8805 25.7292 18.0909 25.5771 17.3973 27.2201Z" fill="#849A72"/>
<path d="M16.7619 30.8681C17.3554 29.8213 18.7023 27.3884 19.3416 26.0312" stroke="#145855" stroke-width="0.8" stroke-linecap="round" stroke-linejoin="round"/>
<path d="M16.9714 28.2129L17.5395 29.4323L19.0499 29.3214" stroke="#145855" stroke-width="0.8" stroke-linecap="round" stroke-linejoin="round"/>
</g>
</svg>
